<?xml version="1.0" encoding="UTF-8"?>
<svg width="318" height="318" viewBox="0 0 318 318" fill="none" xmlns="http://www.w3.org/2000/svg">
  <path d="M274.1 35.5L174.6 109.4L193 65.8L274.1 35.5Z" fill="#E17726" stroke="#E17726" stroke-width="4" stroke-linecap="round" stroke-linejoin="round"/>
  <path d="M43.9 35.5L142.9 109.5L125 65.8L43.9 35.5Z" fill="#E27625" stroke="#E27625" stroke-width="4" stroke-linecap="round" stroke-linejoin="round"/>
  <path d="M238.3 206.8L212.2 247.4L268.5 263L284.8 207L238.3 206.8Z" fill="#E27625" stroke="#E27625" stroke-width="4" stroke-linecap="round" stroke-linejoin="round"/>
  <path d="M33.1 207L49.3 263L105.6 247.4L79.5 206.8L33.1 207Z" fill="#E27625" stroke="#E27625" stroke-width="4" stroke-linecap="round" stroke-linejoin="round"/>
  <path d="M103.6 153.2L88.8 164.6L136.1 166.8L133.9 115.1L103.6 153.2Z" fill="#E27625" stroke="#E27625" stroke-width="4" stroke-linecap="round" stroke-linejoin="round"/>
  <path d="M214.4 153.2L183.8 115.1L181.6 166.8L228.9 164.6L214.4 153.2Z" fill="#E27625" stroke="#E27625" stroke-width="4" stroke-linecap="round" stroke-linejoin="round"/>
  <path d="M106.8 247.4L140.6 230.9L111.4 208.1L106.8 247.4Z" fill="#E27625" stroke="#E27625" stroke-width="4" stroke-linecap="round" stroke-linejoin="round"/>
  <path d="M177.4 230.9L211.2 247.4L206.6 208.1L177.4 230.9Z" fill="#E27625" stroke="#E27625" stroke-width="4" stroke-linecap="round" stroke-linejoin="round"/>
</svg> 